<?xml version="1.0" standalone="no"?>
<!DOCTYPE svg PUBLIC "-//W3C//DTD SVG 20010904//EN"
 "http://www.w3.org/TR/2001/REC-SVG-20010904/DTD/svg10.dtd">
<svg version="1.0" xmlns="http://www.w3.org/2000/svg"
 width="300.000000pt" height="154.000000pt" viewBox="0 0 300.000000 154.000000"
 preserveAspectRatio="xMidYMid meet">
<metadata>
Created by potrace 1.10, written by Peter Selinger 2001-2011
</metadata>
<g transform="translate(0.000000,154.000000) scale(0.050000,-0.050000)"
fill="#f5f5f5" stroke="none">
<path d="M2840 3068 c-850 -148 -1348 -997 -1016 -1733 88 -194 190 -97 119
114 -244 723 285 1458 1057 1472 l110 2 -60 29 c-57 28 -52 29 84 18 151 -13
301 4 272 30 -41 39 -451 88 -566 68z"/>
<path d="M3258 2884 c-83 -41 -181 -87 -217 -102 -36 -15 -70 -43 -75 -61 -6
-24 -49 -42 -142 -61 -227 -45 -323 -222 -213 -394 18 -27 24 -67 16 -105 -7
-37 -4 -61 9 -61 11 0 40 -31 64 -70 53 -86 112 -91 192 -16 36 33 44 49 22
40 -26 -10 -57 7 -110 59 -41 41 -58 68 -39 61 51 -18 45 43 -9 100 -48 51
-64 106 -32 106 11 0 16 18 10 40 -7 28 6 52 46 80 64 45 100 51 100 16 0 -19
5 -19 24 0 32 32 56 30 56 -3 0 -57 151 -299 200 -320 28 -13 62 -34 76 -47
17 -17 41 -19 73 -7 26 10 53 13 60 6 7 -7 18 7 24 31 6 24 20 38 30 32 10 -6
30 -3 43 8 13 11 54 26 90 34 72 15 90 43 102 154 1 7 20 10 42 6 22 -4 40 0
40 8 0 9 22 49 49 89 l50 73 -55 50 c-29 27 -45 51 -34 51 11 1 41 6 66 11 32
5 42 1 32 -15 -10 -16 -4 -20 19 -11 21 8 49 -2 74 -27 22 -22 49 -35 60 -29
10 7 19 3 19 -9 0 -12 -13 -27 -30 -34 -16 -6 -30 -23 -30 -37 0 -15 -11 -32
-25 -38 -14 -7 0 -8 30 -2 62 12 75 -27 26 -76 -16 -16 -23 -35 -16 -43 8 -7
-2 -7 -20 0 -19 7 -30 20 -25 29 5 9 -2 20 -16 26 -35 13 -33 -66 1 -103 31
-33 16 -61 -29 -54 -37 5 -87 -30 -74 -52 5 -8 -19 -33 -52 -57 -33 -23 -60
-61 -60 -83 0 -21 -7 -35 -15 -30 -8 5 -12 -45 -8 -112 4 -70 -3 -140 -18
-166 -13 -26 -19 -61 -12 -79 7 -18 5 -27 -5 -21 -24 14 -35 -23 -33 -114 1
-57 -7 -75 -32 -75 -25 0 -31 -16 -26 -71 4 -41 -1 -65 -12 -58 -10 6 -19 3
-19 -8 0 -11 11 -24 25 -30 19 -7 19 -14 2 -27 -13 -9 -30 -41 -38 -71 -7 -30
-21 -55 -31 -55 -10 0 -16 -11 -13 -25 3 -14 -5 -23 -17 -21 -27 5 -25 -119 2
-139 12 -9 10 -15 -5 -15 -14 0 -25 -13 -25 -30 0 -75 -81 -118 -183 -97 -60
12 -103 13 -115 1 -29 -29 -67 6 -55 51 7 25 -8 65 -36 103 -25 34 -42 72 -38
85 5 12 -6 37 -24 55 -17 17 -25 32 -16 32 8 0 4 11 -9 24 -13 13 -24 40 -24
60 0 20 -9 36 -19 36 -11 0 -15 12 -9 27 6 15 -4 33 -22 40 -18 7 -27 21 -21
31 6 10 -7 14 -28 8 -23 -6 -55 5 -75 25 -31 31 -37 32 -42 6 -3 -17 -37 -45
-75 -63 -38 -19 -69 -40 -69 -49 0 -36 -161 -89 -182 -60 -6 10 -41 -10 -77
-44 -36 -34 -77 -61 -91 -61 -15 0 -31 -11 -37 -25 -8 -19 -14 -19 -29 3 -11
15 -30 21 -43 13 -17 -11 -13 -23 13 -42 42 -31 -44 -30 -94 1 -16 10 -21 8
-13 -5 15 -25 -74 -45 -108 -24 -16 10 -10 19 19 28 38 12 40 19 18 46 -23 28
-21 30 14 17 78 -30 110 -29 128 4 16 27 25 29 45 9 34 -34 64 -32 50 4 -6 17
-3 35 8 42 10 6 19 3 19 -8 0 -11 21 -10 50 4 33 15 49 37 45 63 -4 30 6 40
39 39 24 -1 40 4 36 11 -4 7 4 48 20 91 21 62 30 71 41 44 16 -43 49 -46 49
-5 0 17 9 30 20 30 11 0 20 18 20 40 0 22 11 40 26 40 40 0 93 73 70 96 -13
13 -6 24 22 33 24 8 38 22 32 32 -14 22 32 99 60 100 52 1 96 57 71 88 -78 94
-301 -59 -301 -206 0 -26 -26 -53 -74 -76 -91 -46 -186 -162 -204 -250 -11
-55 -24 -68 -70 -74 -31 -3 -101 -34 -156 -68 -55 -33 -124 -64 -153 -67 -29
-3 -82 -11 -118 -18 -65 -12 -121 65 -173 235 -20 67 -58 39 -46 -35 19 -114
-43 -159 -120 -87 -37 36 -46 38 -46 12 0 -29 -7 -29 -80 0 -90 35 -89 35
-107 -39 -15 -59 58 -116 147 -116 23 0 65 -16 95 -35 143 -94 405 -122 705
-77 61 9 135 18 165 20 30 2 75 23 100 46 25 22 83 46 129 51 100 13 195 76
236 156 46 88 85 56 96 -77 5 -63 29 -186 53 -274 25 -88 47 -171 49 -184 7
-44 28 -50 109 -36 65 10 79 20 73 52 -10 49 23 49 49 0 26 -48 163 -18 341
76 79 41 308 829 304 1047 -2 150 0 156 58 200 72 53 163 234 211 418 40 156
16 223 -91 247 -33 7 -84 32 -113 55 -30 23 -127 62 -216 86 -90 25 -181 50
-203 56 -24 7 -100 -18 -192 -63z m220 -122 c46 -46 283 -188 316 -188 13 0
19 -9 13 -19 -6 -10 -42 -13 -79 -6 -89 17 -140 -13 -168 -99 -17 -53 -34 -70
-69 -70 -29 0 -77 -33 -129 -90 l-82 -89 -70 94 c-38 52 -75 127 -82 165 -13
74 -44 134 -98 187 -30 31 -29 34 20 53 69 26 66 28 74 -33 3 -29 20 -60 36
-68 151 -74 180 -72 180 11 0 26 8 53 18 59 11 6 25 38 32 71 15 70 35 75 88
22z m352 -2 c34 -15 22 -24 -23 -18 -7 1 -19 -10 -28 -23 -8 -13 -25 -18 -38
-10 -17 11 -17 21 0 43 27 32 33 32 89 8z m-2260 -1580 c-6 -9 -2 -20 8 -23
28 -11 35 -82 9 -91 -13 -4 -22 8 -20 28 2 20 -8 34 -22 31 -14 -3 -25 9 -25
27 0 22 -11 28 -35 20 -31 -11 -31 -9 2 17 37 28 102 21 83 -9z"/>
<path d="M4071 2343 c-7 -31 -3 -81 8 -111 28 -74 27 -82 -12 -50 -29 24 -31
23 -20 -12 138 -438 13 -886 -334 -1205 -51 -47 -93 -92 -93 -99 0 -8 11 -3
24 10 13 13 33 24 43 24 85 0 -241 -191 -397 -233 -132 -35 -390 -36 -390 -2
0 15 -71 44 -172 70 -155 40 -288 103 -426 200 -48 34 -48 34 -23 -13 29 -54
4 -46 -72 23 -42 38 -127 35 -127 -4 0 -60 324 -270 525 -341 74 -26 135 -54
135 -61 0 -19 -166 13 -290 55 -120 41 -126 42 -194 24 -33 -9 -57 -6 -61 7
-5 14 -20 14 -50 -2 -28 -15 -47 -16 -55 -3 -18 30 -122 24 -148 -8 -25 -30
-55 -31 -100 -3 -18 11 -24 10 -15 -4 16 -26 -42 -50 -74 -31 -33 21 -77 26
-102 11 -39 -25 -101 -21 -148 9 -27 17 -42 21 -35 9 20 -32 -23 -47 -66 -24
-30 16 -47 14 -69 -9 -20 -20 -35 -23 -43 -9 -13 19 -145 10 -167 -12 -6 -5
-32 5 -59 23 -27 18 -43 23 -36 11 7 -11 4 -26 -8 -33 -11 -7 -20 -5 -20 5 0
9 -28 19 -61 21 -38 3 -57 -3 -49 -16 13 -22 -80 13 -125 47 -19 14 -23 10
-13 -14 7 -18 2 -33 -10 -33 -12 0 -22 10 -22 23 0 14 -13 11 -35 -8 -30 -28
-42 -28 -85 -4 -27 15 -82 28 -121 28 -38 1 -89 14 -111 30 -30 20 -61 24
-113 12 -40 -9 -77 -12 -82 -7 -6 5 -20 -10 -32 -33 -13 -23 -32 -37 -42 -30
-10 6 -19 1 -19 -11 0 -12 -16 -19 -35 -16 -32 5 -36 -20 -41 -259 l-7 -265
2938 0 c1616 0 2966 -5 3001 -12 l64 -13 0 218 c-1 144 -7 207 -20 187 -10
-16 -29 -30 -42 -30 -12 0 -49 -74 -82 -165 -57 -156 -63 -165 -119 -165 -67
0 -67 -2 5 190 43 113 48 159 16 139 -13 -9 -19 7 -15 44 7 57 7 57 133 50
l126 -7 -6 96 c-6 92 -91 165 -126 108 -6 -9 -32 -14 -60 -11 -27 3 -45 -1
-40 -10 11 -17 -42 -44 -95 -50 -20 -2 -41 5 -47 15 -7 10 -23 8 -39 -5 -15
-12 -36 -17 -46 -11 -11 7 -23 2 -27 -11 -6 -16 -22 -18 -47 -7 -51 22 -75 25
-99 12 -36 -19 -90 -15 -91 6 0 12 -13 5 -30 -17 -29 -38 -29 -38 -29 0 0 22
-7 30 -15 18 -12 -17 -171 -25 -205 -10 -31 13 -97 12 -88 -2 6 -10 3 -18 -6
-19 -9 0 -32 -4 -51 -8 -21 -4 -30 2 -22 15 9 14 2 17 -19 9 -18 -7 -37 -5
-43 5 -6 9 -44 5 -86 -9 -54 -19 -79 -20 -89 -4 -9 16 -27 15 -65 -2 -42 -19
-51 -18 -51 5 0 16 -9 34 -20 41 -11 7 -15 -1 -9 -16 13 -33 -83 -42 -103 -11
-7 11 -23 9 -40 -4 -17 -14 -28 -16 -28 -4 0 35 -79 43 -110 12 -21 -21 -30
-23 -30 -5 0 14 -5 19 -12 13 -6 -6 -42 1 -81 17 -73 31 -90 27 -162 -38 -44
-40 -45 -40 -45 -2 -1 29 -5 32 -18 10 -13 -19 -38 -23 -89 -14 -44 8 -86 4
-110 -11 -32 -20 -46 -19 -71 2 -18 14 -32 17 -32 7 0 -11 -11 -20 -25 -21
-14 -2 -71 -6 -128 -11 -56 -5 -115 -1 -130 8 -22 14 -21 17 4 18 59 0 353
134 473 216 413 280 637 868 504 1324 -80 273 -124 347 -147 243z m-3695
-1926 c12 -66 -62 -187 -120 -193 -43 -5 -59 -23 -81 -90 -24 -72 -37 -85 -91
-90 l-62 -6 67 200 c38 111 73 208 78 218 19 31 202 -3 209 -39z m1728 52 c34
-34 -142 -419 -195 -426 -43 -5 -52 1 -42 25 6 17 35 110 65 207 63 210 107
259 172 194z m351 -15 c15 -42 0 -74 -33 -74 -30 0 -52 -37 -98 -165 -56 -155
-63 -165 -122 -171 l-62 -7 60 162 c54 149 56 170 15 163 -20 -3 -19 33 3 74
18 34 225 50 237 18z m625 0 c0 -14 -7 -35 -17 -45 -9 -10 -42 -98 -74 -194
-54 -163 -62 -175 -113 -175 l-54 0 28 81 c16 44 47 143 70 220 39 131 45 139
101 139 35 0 59 -11 59 -26z m1004 15 c7 -6 -15 -80 -47 -163 -41 -108 -52
-157 -36 -167 54 -33 10 -89 -76 -95 -101 -7 -100 -23 -24 213 73 229 117 279
183 212z m-3485 -98 c49 -59 7 -151 -70 -151 -48 0 -74 -12 -90 -41 -35 -66
-10 -94 30 -34 33 52 111 77 111 37 0 -42 -106 -142 -150 -142 -123 0 -135 41
-62 207 63 144 168 200 231 124z m249 -20 c-6 -23 -33 -59 -59 -81 -27 -23
-63 -84 -81 -135 -26 -78 -40 -95 -80 -95 -59 0 -59 -7 6 193 l54 166 86 -4
c76 -3 85 -8 74 -44z m209 31 c40 -25 19 -91 -32 -98 -25 -4 -45 3 -45 16 0
12 -10 16 -22 9 -13 -9 -6 -29 20 -57 53 -56 53 -121 2 -172 -73 -73 -220 -36
-188 47 7 18 29 33 50 33 41 0 51 30 18 50 -63 39 30 190 116 190 30 0 66 -8
81 -18z m279 -37 c21 -143 -99 -314 -210 -301 -156 18 -14 367 144 352 45 -5
62 -17 66 -51z m297 23 c24 -61 -95 -328 -146 -328 -56 0 -56 -12 -7 130 22
64 40 125 40 136 0 45 -32 -15 -72 -132 -36 -109 -48 -125 -97 -131 -48 -5
-54 -1 -41 30 8 21 32 91 53 157 21 66 42 131 46 144 13 35 211 30 224 -6z
m246 13 c32 -20 14 -124 -48 -271 -27 -65 -32 -68 -125 -64 -125 5 -142 64
-45 155 44 41 54 59 31 59 -46 0 -40 34 17 91 51 50 119 62 170 30z m749 -30
c-6 -23 -31 -58 -55 -78 -24 -20 -57 -79 -75 -130 -29 -87 -138 -154 -138 -85
0 37 107 312 126 325 50 33 154 10 142 -32z m229 22 c17 -20 10 -65 -29 -179
l-51 -152 -98 1 c-55 0 -104 9 -110 18 -18 29 47 159 80 159 17 0 31 9 31 20
0 11 -14 20 -31 20 -36 0 11 109 56 127 49 20 130 13 152 -14z m452 8 c27 -43
-98 -341 -143 -341 -56 0 -56 4 -6 150 46 133 46 136 22 121 -11 -6 -38 -70
-62 -141 -37 -112 -50 -130 -92 -130 -26 0 -48 7 -48 17 0 17 98 304 112 326
11 17 206 16 217 -2z m250 -10 c49 -59 7 -151 -70 -151 -65 0 -109 -40 -109
-99 0 -39 33 -22 56 29 27 59 111 73 90 15 -70 -199 -280 -160 -215 39 56 173
176 254 248 167z m261 7 c0 -39 -48 -115 -77 -123 -18 -5 -50 -55 -70 -112
-31 -85 -45 -103 -85 -103 -59 0 -59 -11 4 192 l53 168 87 -3 c49 -2 88 -11
88 -19z m520 -8 c63 -76 -74 -330 -177 -330 -104 1 -114 23 -73 160 52 172
178 257 250 170z m249 -18 c-7 -23 -33 -60 -57 -82 -25 -22 -61 -83 -80 -135
-29 -77 -44 -95 -84 -95 -59 0 -59 -8 6 194 l54 166 86 -3 c78 -3 85 -8 75
-45z m230 19 c44 -53 -1 -140 -76 -147 -64 -7 -114 -63 -97 -110 5 -13 20 1
35 31 30 64 99 75 99 16 0 -104 -222 -165 -237 -64 -25 176 185 384 276 274z
m301 -19 c-1 -93 -94 -302 -138 -308 -50 -8 -51 2 -10 122 52 154 21 176 -35
24 -40 -107 -62 -142 -95 -146 -52 -8 -53 -14 10 186 l52 167 108 -1 c96 -1
108 -6 108 -44z m220 16 c0 -18 -31 -76 -70 -128 -78 -106 -83 -120 -42 -120
18 0 25 -14 18 -40 -9 -32 -27 -40 -98 -40 -106 0 -107 8 -18 140 76 113 82
133 46 145 -13 4 -17 22 -10 41 18 47 174 49 174 2z m239 3 c64 -77 -86 -331
-196 -331 -91 0 -108 37 -71 159 50 171 193 262 267 172z m363 -276 c-16 -44
-102 -76 -102 -38 0 50 28 83 71 83 41 0 45 -6 31 -45z"/>
<path d="M1201 273 c-12 -29 -30 -75 -41 -103 -14 -38 -13 -50 8 -50 15 0 38
41 52 91 28 99 13 146 -19 62z"/>
<path d="M4194 221 c-39 -110 -41 -128 -16 -112 26 16 82 189 65 199 -8 5 -30
-34 -49 -87z"/>
<path d="M5439 268 c-29 -76 -47 -168 -33 -168 17 0 80 201 67 214 -7 6 -22
-14 -34 -46z"/>
</g>
</svg>
