<?xml version="1.0" encoding="utf-8"?>
<!-- Generator: Avocode 0.4.0 - http://avocode.com -->
<svg height="158" width="220" xmlns:xlink="http://www.w3.org/1999/xlink" xmlns="http://www.w3.org/2000/svg" viewBox="0 0 220 158">
    <path fill="none" fill-rule="evenodd" d="M 0.01 139.88 L 0.01 157.13 L 4.93 157.13 L 9.84 157.13 L 9.84 139.88 L 0.01 139.88 L 0.01 139.88 Z M 0.01 139.88" />
    <path fill="#343433" fill-rule="evenodd" d="M 0 153.43 L 2.46 153.43 L 2.46 154.66 L 7.38 154.66 L 7.38 149.73 L 1.97 149.73 L 0 147.76 L 0 141.85 L 1.97 139.88 L 7.87 139.88 L 9.84 141.85 L 9.84 143.57 L 7.38 143.57 L 7.38 142.34 L 2.46 142.34 L 2.46 147.27 L 7.87 147.27 L 9.84 149.24 L 9.84 155.16 L 7.87 157.13 L 1.97 157.13 L 0 155.16 L 0 153.43" />
    <path fill="#343433" fill-rule="evenodd" d="M 17 157.13 L 17 142.34 L 13.31 142.34 L 13.31 139.88 L 23.15 139.88 L 23.15 142.34 L 19.46 142.34 L 19.46 157.13 L 17 157.13" />
    <path fill="#343433" fill-rule="evenodd" d="M 26.62 139.88 L 29.08 139.88 L 29.08 154.66 L 34 154.66 L 34 139.88 L 36.46 139.88 L 36.46 155.16 L 34.49 157.13 L 28.58 157.13 L 26.62 155.16 L 26.62 139.88" />
    <path fill="#343433" fill-rule="evenodd" d="M 42.38 154.66 L 47.3 154.66 L 47.3 142.34 L 42.38 142.34 L 42.38 154.66 Z M 39.92 157.13 L 39.92 139.88 L 47.8 139.88 L 49.76 141.85 L 49.76 155.16 L 47.8 157.13 L 39.92 157.13 L 39.92 157.13 Z M 39.92 157.13" />
    <path fill="#343433" fill-rule="evenodd" d="M 53.23 157.13 L 53.23 139.88 L 63.07 139.88 L 63.07 142.34 L 55.69 142.34 L 55.69 147.27 L 60.61 147.27 L 60.61 149.73 L 55.69 149.73 L 55.69 154.66 L 63.07 154.66 L 63.07 157.13 L 53.23 157.13" />
    <path fill="#343433" fill-rule="evenodd" d="M 66.54 157.13 L 66.54 139.88 L 69 139.88 L 75.15 151.71 L 75.15 139.88 L 77.61 139.88 L 77.61 157.13 L 75.15 157.13 L 69 145.3 L 69 157.13 L 66.54 157.13" />
    <path fill="#343433" fill-rule="evenodd" d="M 84.77 157.13 L 84.77 142.34 L 81.08 142.34 L 81.08 139.88 L 90.92 139.88 L 90.92 142.34 L 87.23 142.34 L 87.23 157.13 L 84.77 157.13" />
    <path fill="#d9222a" fill-rule="evenodd" d="M 100.54 144.81 L 99.31 149.73 L 101.77 149.73 L 100.54 144.81 Z M 94.39 157.13 L 94.39 154.66 L 95.62 154.66 L 99.31 139.88 L 101.77 139.88 L 105.46 154.66 L 106.69 154.66 L 106.69 157.13 L 101.77 157.13 L 101.77 154.66 L 103 154.66 L 102.38 152.2 L 98.69 152.2 L 98.08 154.66 L 99.31 154.66 L 99.31 157.13 L 94.39 157.13 L 94.39 157.13 Z M 94.39 157.13" />
    <path fill="#d9222a" fill-rule="evenodd" d="M 110.15 157.13 L 110.15 139.88 L 119.99 139.88 L 119.99 142.34 L 112.61 142.34 L 112.61 147.27 L 117.53 147.27 L 117.53 149.73 L 112.61 149.73 L 112.61 154.66 L 119.99 154.66 L 119.99 157.13 L 110.15 157.13" />
    <path fill="#d9222a" fill-rule="evenodd" d="M 123.46 153.43 L 125.92 153.43 L 125.92 154.66 L 130.84 154.66 L 130.84 149.73 L 125.43 149.73 L 123.46 147.76 L 123.46 141.85 L 125.43 139.88 L 131.33 139.88 L 133.3 141.85 L 133.3 143.57 L 130.84 143.57 L 130.84 142.34 L 125.92 142.34 L 125.92 147.27 L 131.33 147.27 L 133.3 149.24 L 133.3 155.16 L 131.33 157.13 L 125.43 157.13 L 123.46 155.16 L 123.46 153.43" />
    <path fill="#d9222a" fill-rule="evenodd" d="M 140.46 157.13 L 140.46 142.34 L 136.77 142.34 L 136.77 139.88 L 146.61 139.88 L 146.61 142.34 L 142.92 142.34 L 142.92 157.13 L 140.46 157.13" />
    <path fill="#d9222a" fill-rule="evenodd" d="M 150.08 157.13 L 150.08 139.88 L 152.54 139.88 L 152.54 147.27 L 157.46 147.27 L 157.46 139.88 L 159.92 139.88 L 159.92 157.13 L 157.46 157.13 L 157.46 149.73 L 152.54 149.73 L 152.54 157.13 L 150.08 157.13" />
    <path fill="#d9222a" fill-rule="evenodd" d="M 163.38 157.13 L 163.38 139.88 L 173.23 139.88 L 173.23 142.34 L 165.85 142.34 L 165.85 147.27 L 170.77 147.27 L 170.77 149.73 L 165.85 149.73 L 165.85 154.66 L 173.23 154.66 L 173.23 157.13 L 163.38 157.13" />
    <path fill="#d9222a" fill-rule="evenodd" d="M 180.38 157.13 L 180.38 142.34 L 176.69 142.34 L 176.69 139.88 L 186.53 139.88 L 186.53 142.34 L 182.84 142.34 L 182.84 157.13 L 180.38 157.13" />
    <path fill="#d9222a" fill-rule="evenodd" d="M 190 157.13 L 192.46 157.13 L 192.46 139.88 L 190 139.88 L 190 157.13 Z M 190 157.13" />
    <path fill="#d9222a" fill-rule="evenodd" d="M 197.9 157.13 L 195.93 155.16 L 195.93 141.85 L 197.9 139.88 L 203.8 139.88 L 205.77 141.85 L 205.77 144.81 L 203.31 144.81 L 203.31 142.34 L 198.39 142.34 L 198.39 154.66 L 203.31 154.66 L 203.31 152.2 L 205.77 152.2 L 205.77 155.16 L 203.8 157.13 L 197.9 157.13" />
    <path fill="#d9222a" fill-rule="evenodd" d="M 209.24 153.43 L 211.7 153.43 L 211.7 154.66 L 216.62 154.66 L 216.62 149.73 L 211.2 149.73 L 209.24 147.76 L 209.24 141.85 L 211.2 139.88 L 217.11 139.88 L 219.08 141.85 L 219.08 143.57 L 216.62 143.57 L 216.62 142.34 L 211.7 142.34 L 211.7 147.27 L 217.11 147.27 L 219.08 149.24 L 219.08 155.16 L 217.11 157.13 L 211.2 157.13 L 209.24 155.16 L 209.24 153.43" />
    <path fill="#343433" fill-rule="evenodd" d="M 166.05 33.17 C 165.98 33.47 165.91 33.77 165.84 34.07 C 165.43 35.92 164.81 37.71 163.96 39.51 C 167.64 47.31 169.71 56.02 169.71 65.21 C 169.71 98.45 142.72 125.49 109.54 125.49 C 92.84 125.49 77.72 118.64 66.81 107.6 C 66.04 107.83 65.25 108.05 64.45 108.21 C 63.3 108.45 62.27 108.63 61.31 108.76 C 73.21 121.97 90.42 130.28 109.54 130.28 C 145.35 130.28 174.5 101.09 174.5 65.21 C 174.5 53.57 171.42 42.63 166.05 33.17" />
    <path fill="#343433" fill-rule="evenodd" d="M 55.69 94.23 C 55.97 94.08 56.26 93.91 56.55 93.76 C 51.97 85.25 49.37 75.53 49.37 65.21 C 49.37 31.97 76.36 4.93 109.54 4.93 C 115.01 4.93 120.31 5.67 125.35 7.05 C 126.98 6.14 128.72 5.38 130.63 4.91 L 130.8 4.87 L 130.97 4.86 L 131.06 4.86 L 133.79 4.85 C 126.29 1.81 118.11 0.14 109.54 0.14 C 73.72 0.14 44.58 29.33 44.58 65.21 C 44.58 76.18 47.31 86.52 52.12 95.6 C 52.5 95.52 52.89 95.44 53.28 95.35 C 54.06 95.17 54.85 94.71 55.69 94.23" />
    <path fill="#343433" fill-rule="evenodd" d="M 166.17 21.52 C 165.67 20.65 165.35 19.61 164.65 18.98 C 163.69 18.11 162.53 17.29 161.31 16.94 C 158.57 16.17 156.1 14.95 153.83 13.29 C 151.11 11.3 148.09 10.38 144.77 9.91 C 144.31 9.85 143.84 9.77 143.38 9.69 C 140.04 9.08 136.81 7.99 133.83 6.29 C 132.88 6.29 131.93 6.3 130.97 6.3 C 129.69 6.62 128.49 7.08 127.35 7.63 C 125.89 8.33 124.53 9.19 123.2 10.11 C 121.96 10.99 120.74 11.92 119.52 12.84 C 118.73 13.43 117.83 13.99 116.89 14.2 C 114.17 14.82 111.87 16.19 109.73 17.85 C 109.47 18.05 109.22 18.28 109.02 18.55 C 108.77 18.89 108.38 19.58 108.93 19.85 C 109.01 19.88 109.08 19.9 109.16 19.92 C 109.19 19.93 109.22 19.93 109.25 19.93 C 109.31 19.94 109.36 19.95 109.42 19.95 C 109.43 19.95 109.44 19.95 109.45 19.95 C 109.46 19.95 109.48 19.95 109.5 19.95 C 109.59 19.94 109.68 19.93 109.77 19.92 C 109.79 19.91 109.82 19.91 109.84 19.91 C 109.95 19.88 110.06 19.85 110.17 19.82 C 110.18 19.81 110.19 19.81 110.21 19.8 C 110.3 19.77 110.39 19.73 110.47 19.68 C 110.49 19.67 110.51 19.66 110.54 19.65 C 110.63 19.6 110.71 19.54 110.78 19.49 C 111.07 19.25 111.32 18.99 111.69 18.89 C 112.11 18.77 112.55 18.78 112.97 18.63 C 112.99 18.63 113.01 18.62 113.05 18.61 C 113.06 18.61 113.07 18.61 113.08 18.61 C 113.11 18.6 113.14 18.59 113.18 18.59 C 113.19 18.58 113.21 18.58 113.22 18.58 C 113.27 18.57 113.33 18.56 113.39 18.55 C 113.41 18.55 113.44 18.54 113.47 18.54 C 113.51 18.53 113.55 18.52 113.6 18.52 C 113.63 18.51 113.66 18.51 113.7 18.5 C 113.74 18.49 113.79 18.49 113.83 18.48 C 113.87 18.48 113.9 18.47 113.94 18.47 C 114.02 18.46 114.1 18.44 114.18 18.43 C 114.21 18.43 114.25 18.42 114.28 18.42 C 114.34 18.41 114.4 18.41 114.45 18.4 C 114.49 18.4 114.53 18.39 114.57 18.39 C 114.63 18.38 114.7 18.37 114.77 18.37 C 114.81 18.36 114.84 18.36 114.88 18.35 C 114.95 18.35 115.03 18.34 115.1 18.33 C 115.14 18.33 115.17 18.33 115.2 18.33 C 115.26 18.32 115.32 18.32 115.38 18.31 C 115.41 18.31 115.44 18.31 115.47 18.31 C 115.55 18.3 115.63 18.3 115.71 18.3 C 115.73 18.3 115.74 18.3 115.76 18.3 C 115.81 18.29 115.87 18.29 115.92 18.29 C 115.97 18.3 116.01 18.3 116.05 18.3 C 116.08 18.3 116.11 18.3 116.14 18.3 C 116.18 18.31 116.21 18.31 116.25 18.32 C 116.27 18.32 116.3 18.32 116.31 18.33 C 116.35 18.33 116.37 18.34 116.39 18.35 C 116.4 18.36 116.41 18.36 116.42 18.37 C 116.45 18.39 116.46 18.41 116.46 18.43 C 116.45 18.67 116.47 18.76 116.43 18.85 C 115.69 20.39 115.76 22.17 116.91 23.46 C 117.46 24.06 118.18 24.6 119 24.76 C 119.08 24.77 119.18 24.78 119.28 24.79 C 119.31 24.79 119.35 24.8 119.38 24.8 C 119.45 24.8 119.53 24.81 119.61 24.81 C 119.63 24.81 119.64 24.81 119.66 24.81 C 119.72 24.81 119.78 24.81 119.83 24.81 C 119.85 24.8 119.86 24.81 119.87 24.8 C 119.97 24.8 120.07 24.79 120.16 24.78 C 120.19 24.77 120.21 24.77 120.24 24.76 C 120.31 24.75 120.39 24.74 120.46 24.72 C 120.48 24.71 120.5 24.71 120.53 24.7 C 120.61 24.67 120.7 24.64 120.78 24.6 C 120.79 24.59 120.81 24.59 120.82 24.58 C 120.88 24.54 120.94 24.51 120.99 24.46 C 121.01 24.45 121.02 24.44 121.04 24.42 C 121.1 24.36 121.15 24.3 121.19 24.23 C 121.48 23.65 120.91 22.99 120.56 22.58 C 119.69 21.55 118.85 20.32 120.08 19.2 C 120.11 19.17 120.15 19.15 120.19 19.13 C 120.21 19.13 120.23 19.12 120.24 19.12 C 120.28 19.11 120.31 19.09 120.35 19.09 C 120.37 19.08 120.39 19.08 120.41 19.08 C 120.45 19.07 120.49 19.07 120.53 19.06 C 120.56 19.06 120.58 19.06 120.6 19.06 C 120.64 19.06 120.68 19.06 120.72 19.06 C 120.76 19.06 120.8 19.06 120.84 19.07 C 120.87 19.07 120.9 19.07 120.93 19.08 C 120.97 19.08 121.01 19.09 121.05 19.1 C 121.08 19.11 121.11 19.11 121.13 19.12 C 121.17 19.13 121.21 19.14 121.24 19.16 C 121.26 19.17 121.28 19.17 121.29 19.18 C 121.34 19.21 121.37 19.23 121.39 19.26 C 122.36 20.7 123.26 21.92 123.16 23.73 C 123.14 24.04 123.15 24.39 123.18 24.75 C 123.19 24.77 123.19 24.8 123.19 24.82 C 123.2 24.88 123.21 24.95 123.22 25.01 C 123.22 25.05 123.23 25.08 123.24 25.12 C 123.25 25.17 123.26 25.22 123.27 25.28 C 123.28 25.32 123.29 25.36 123.3 25.4 C 123.31 25.44 123.32 25.49 123.33 25.53 C 123.35 25.58 123.37 25.62 123.38 25.67 C 123.39 25.71 123.4 25.74 123.42 25.77 C 123.44 25.82 123.46 25.87 123.48 25.92 C 123.5 25.95 123.51 25.98 123.52 26 C 123.55 26.05 123.57 26.09 123.6 26.14 C 123.62 26.16 123.63 26.19 123.65 26.22 C 123.68 26.26 123.71 26.29 123.74 26.33 C 123.76 26.36 123.78 26.38 123.8 26.41 C 123.83 26.44 123.87 26.47 123.9 26.5 C 123.93 26.53 123.95 26.55 123.97 26.57 C 124.01 26.6 124.05 26.62 124.09 26.65 C 124.12 26.67 124.15 26.69 124.18 26.7 C 124.22 26.73 124.26 26.74 124.3 26.76 C 124.34 26.77 124.37 26.79 124.41 26.8 C 124.45 26.82 124.5 26.83 124.54 26.84 C 124.59 26.85 124.62 26.86 124.67 26.87 C 124.71 26.87 124.77 26.87 124.82 26.88 C 124.86 26.88 124.91 26.89 124.95 26.89 L 124.97 26.89 C 125.31 26.89 125.84 26.28 125.96 25.85 C 126.25 24.9 126.23 23.86 126.52 22.92 C 126.89 21.79 127.37 20.79 128.14 19.89 C 128.62 19.33 128.99 18.79 129.08 18.04 C 129.17 17.19 129.44 16.69 130 16.02 C 130.07 15.93 130.14 15.84 130.2 15.74 C 130.22 15.72 130.23 15.7 130.25 15.68 C 130.39 15.47 130.51 15.26 130.64 15.05 C 130.69 14.96 130.75 14.87 130.8 14.79 C 130.82 14.78 130.83 14.76 130.84 14.74 C 130.89 14.67 130.94 14.61 130.99 14.55 C 131 14.53 131.02 14.51 131.03 14.49 C 131.1 14.42 131.16 14.36 131.23 14.31 C 131.24 14.3 131.26 14.29 131.27 14.28 C 131.33 14.23 131.39 14.2 131.46 14.17 C 131.48 14.16 131.49 14.16 131.51 14.15 C 131.59 14.12 131.67 14.11 131.76 14.11 C 131.79 14.1 131.83 14.11 131.86 14.11 C 131.89 14.11 131.92 14.11 131.95 14.12 C 132 14.13 132.04 14.14 132.09 14.15 C 132.12 14.16 132.15 14.17 132.18 14.18 C 132.23 14.2 132.28 14.22 132.34 14.25 C 132.37 14.26 132.39 14.27 132.42 14.29 C 132.51 14.33 132.6 14.39 132.7 14.45 C 136.78 17.22 140.87 19.96 144.92 22.77 C 146.5 23.88 148.08 25.12 149.51 26.41 C 148.23 26.63 146.93 26.6 145.65 26.89 C 143.64 27.34 141.91 28.34 140.72 30.06 C 140.14 30.9 139.71 31.84 139.35 32.8 C 139.22 33.14 138.56 35.86 138.36 35.9 C 133.49 36.82 133.48 37.14 130.22 39.81 C 128.86 40.92 127.64 42.2 126.4 43.45 C 126.3 43.54 126.21 43.63 126.13 43.72 C 126.12 43.73 126.12 43.73 126.11 43.74 C 126.03 43.81 125.96 43.88 125.89 43.95 C 125.88 43.97 125.86 43.98 125.84 44 C 125.78 44.05 125.73 44.1 125.68 44.15 C 125.66 44.17 125.64 44.19 125.62 44.21 C 125.57 44.24 125.53 44.28 125.49 44.32 C 125.46 44.33 125.44 44.35 125.42 44.37 C 125.38 44.4 125.34 44.42 125.3 44.45 C 125.28 44.46 125.26 44.48 125.23 44.49 C 125.2 44.51 125.16 44.53 125.13 44.55 C 125.11 44.56 125.08 44.57 125.06 44.58 C 125.03 44.59 125 44.6 124.96 44.61 C 124.94 44.62 124.92 44.62 124.9 44.63 C 124.86 44.63 124.83 44.64 124.79 44.64 C 124.77 44.64 124.75 44.64 124.73 44.64 C 124.7 44.64 124.68 44.64 124.66 44.64 C 124.63 44.63 124.6 44.63 124.57 44.62 C 124.55 44.62 124.52 44.61 124.5 44.6 C 124.47 44.59 124.44 44.58 124.41 44.57 C 124.38 44.56 124.35 44.55 124.33 44.54 C 124.3 44.52 124.26 44.51 124.23 44.49 C 124.2 44.47 124.18 44.46 124.15 44.44 C 124.11 44.42 124.08 44.4 124.04 44.37 C 124.01 44.35 123.99 44.34 123.96 44.32 C 123.91 44.29 123.87 44.25 123.82 44.22 C 123.8 44.2 123.77 44.18 123.75 44.16 C 123.69 44.12 123.64 44.07 123.58 44.02 C 123.56 44 123.54 43.99 123.51 43.97 C 123.43 43.9 123.35 43.82 123.26 43.74 C 121.45 42.15 119.86 40.3 118.34 38.42 C 116.87 36.62 115.94 34.67 115.87 32.11 C 115.81 30.17 115.25 28.28 114.39 26.55 C 113.74 25.25 113.11 23.94 112.17 22.83 C 111.12 21.59 109.79 21.63 108.28 21.57 C 108.08 21.57 107.89 21.55 107.69 21.54 C 107.63 21.54 107.57 21.53 107.51 21.53 C 107.35 21.52 107.18 21.51 107.01 21.5 C 106.83 21.48 106.65 21.47 106.47 21.46 C 106.42 21.46 106.37 21.46 106.32 21.46 C 106.16 21.45 106 21.45 105.84 21.45 C 105.82 21.45 105.79 21.45 105.76 21.45 C 105.75 21.45 105.75 21.45 105.74 21.45 C 105.63 21.45 105.53 21.45 105.43 21.45 C 105.38 21.45 105.33 21.45 105.28 21.46 C 105.13 21.46 104.98 21.48 104.83 21.49 C 103.71 21.62 102.61 21.93 101.52 22.21 C 97.5 23.21 92.3 23.67 90.51 28.01 C 90.11 28.96 89.44 29.84 89.26 30.81 C 88.99 32.2 89.05 33.66 88.99 35.09 C 88.92 36.78 88.7 38.49 90.07 39.91 C 90.42 40.28 90.43 40.98 90.67 41.49 C 90.99 42.15 91.42 42.75 91.77 43.4 C 91.95 43.75 92.17 44.14 92.16 44.51 C 92.12 45.36 91.97 46.2 91.83 47.04 C 91.42 49.68 91.5 49.78 94.11 50.09 C 94.41 52.71 95.71 54.9 97.32 56.94 C 97.59 57.27 98.03 57.55 98.44 57.66 C 98.66 57.72 98.87 57.76 99.09 57.8 C 99.14 57.82 99.2 57.82 99.25 57.83 C 99.46 57.87 99.66 57.9 99.86 57.91 C 99.87 57.91 99.89 57.92 99.9 57.92 C 100.07 57.93 100.23 57.94 100.39 57.94 C 100.44 57.94 100.48 57.93 100.52 57.93 C 100.58 57.93 100.63 57.93 100.68 57.92 C 100.88 57.91 101.07 57.9 101.26 57.87 C 101.27 57.87 101.29 57.87 101.3 57.86 C 101.5 57.83 101.7 57.78 101.9 57.73 C 101.95 57.71 102 57.7 102.05 57.68 C 102.24 57.62 102.43 57.55 102.61 57.47 C 102.62 57.47 102.63 57.46 102.64 57.46 C 102.84 57.37 103.03 57.27 103.21 57.16 C 103.26 57.13 103.31 57.1 103.36 57.07 C 103.55 56.95 103.74 56.82 103.92 56.67 C 104.79 55.98 105.78 55.43 106.72 54.82 C 106.87 54.97 107.03 55.11 107.19 55.26 C 106.96 55.77 106.87 56.39 106.5 56.76 C 106.37 56.9 106.23 57.03 106.09 57.16 C 106.06 57.19 106.03 57.22 106 57.25 C 105.86 57.38 105.72 57.5 105.58 57.62 C 105.55 57.64 105.53 57.66 105.5 57.68 C 105.38 57.79 105.24 57.89 105.11 57.98 C 105.09 58 105.06 58.02 105.03 58.04 C 104.88 58.14 104.74 58.24 104.58 58.33 C 104.55 58.35 104.51 58.37 104.48 58.39 C 104.32 58.48 104.16 58.56 104 58.63 C 104 58.63 103.99 58.63 103.98 58.64 C 103.82 58.71 103.66 58.76 103.49 58.82 C 103.45 58.83 103.41 58.84 103.37 58.85 C 103.21 58.9 103.04 58.94 102.86 58.96 C 102.83 58.97 102.8 58.97 102.76 58.98 C 102.6 59 102.44 59.01 102.27 59.01 C 102.23 59.01 102.19 59.01 102.15 59.01 C 102.12 59.01 102.08 59.01 102.05 59.01 C 101.96 59.01 101.87 59 101.78 58.99 C 101.73 58.99 101.69 58.98 101.65 58.98 C 101.56 58.97 101.46 58.95 101.37 58.94 C 101.33 58.93 101.29 58.92 101.25 58.92 C 101.12 58.89 100.98 58.86 100.85 58.82 C 100.44 58.71 100 58.69 99.58 58.65 C 99.36 58.63 99.15 58.61 98.94 58.6 C 98.87 58.6 98.8 58.6 98.72 58.59 C 98.59 58.59 98.45 58.58 98.31 58.58 C 98.29 58.58 98.27 58.58 98.25 58.58 C 98.22 58.58 98.19 58.58 98.16 58.58 C 97.87 58.59 97.57 58.6 97.28 58.62 C 97.26 58.62 97.24 58.62 97.22 58.63 C 96.93 58.65 96.63 58.69 96.34 58.74 C 96.29 58.75 96.24 58.76 96.19 58.77 C 95.91 58.82 95.63 58.88 95.35 58.95 C 95.3 58.97 95.25 58.98 95.2 59 C 94.92 59.07 94.65 59.16 94.37 59.26 C 94.35 59.27 94.33 59.28 94.3 59.29 C 94.04 59.39 93.78 59.5 93.52 59.62 C 93.49 59.63 93.45 59.64 93.42 59.66 C 93.16 59.78 92.91 59.92 92.66 60.06 C 92.61 60.09 92.56 60.11 92.52 60.14 C 92.27 60.28 92.03 60.44 91.79 60.6 C 91.75 60.63 91.72 60.66 91.68 60.68 C 91.43 60.86 91.19 61.04 90.96 61.24 C 87.4 64.19 84.96 67.93 84.85 72.83 C 84.83 73.43 84.06 74.42 83.51 74.53 C 80.13 75.23 77.64 77.14 75.41 79.68 C 72.83 82.61 70.87 85.73 70.74 89.75 C 70.7 91.06 70.02 91.57 68.76 91.6 C 65.83 91.68 63.12 92.56 60.47 93.62 C 59.71 93.92 58.96 94.23 58.21 94.55 C 57.88 94.69 57.57 94.85 57.25 95.02 C 56.05 95.66 54.89 96.45 53.6 96.75 C 53.35 96.81 53.09 96.86 52.83 96.92 C 49.64 97.63 46.37 98.08 43.13 98.62 C 43 98.64 42.88 98.66 42.77 98.67 C 42.75 98.68 42.73 98.68 42.7 98.68 C 42.61 98.69 42.53 98.7 42.45 98.71 C 42.41 98.72 42.38 98.72 42.34 98.72 C 42.28 98.73 42.22 98.73 42.16 98.74 C 42.12 98.74 42.08 98.74 42.04 98.74 C 42 98.74 41.95 98.74 41.91 98.74 C 41.8 98.74 41.69 98.74 41.59 98.72 C 41.57 98.72 41.55 98.72 41.53 98.71 C 41.45 98.7 41.37 98.68 41.3 98.65 C 41.28 98.65 41.27 98.64 41.26 98.64 C 41.17 98.61 41.1 98.56 41.03 98.52 C 41.01 98.51 40.99 98.49 40.98 98.48 C 40.91 98.43 40.85 98.38 40.79 98.32 C 40.78 98.31 40.78 98.3 40.77 98.29 C 40.7 98.22 40.64 98.14 40.58 98.05 C 40.57 98.03 40.55 98.01 40.54 97.98 C 40.48 97.89 40.42 97.8 40.36 97.69 C 40.36 97.68 40.36 97.67 40.35 97.67 C 40.29 97.55 40.23 97.42 40.16 97.27 C 40.15 97.24 40.13 97.2 40.11 97.17 C 40.05 97.02 39.98 96.87 39.91 96.7 C 39.16 94.98 38.54 93.14 37.48 91.62 C 36.31 89.94 35.23 88.38 35.27 86.25 C 35.28 86.13 35.27 86.03 35.25 85.93 C 35.25 85.91 35.25 85.88 35.24 85.86 C 35.23 85.77 35.2 85.68 35.17 85.61 C 35.17 85.6 35.17 85.6 35.16 85.6 C 35.13 85.53 35.1 85.47 35.05 85.42 C 35.04 85.41 35.03 85.39 35.02 85.38 C 34.98 85.33 34.92 85.29 34.87 85.26 C 34.86 85.26 34.85 85.26 34.85 85.25 C 34.79 85.23 34.73 85.21 34.67 85.2 C 34.65 85.2 34.64 85.2 34.62 85.2 C 34.61 85.2 34.6 85.19 34.58 85.19 C 34.52 85.19 34.46 85.2 34.4 85.22 C 34.39 85.22 34.38 85.22 34.37 85.23 C 34.3 85.24 34.22 85.27 34.15 85.3 C 34.12 85.32 34.1 85.33 34.08 85.34 C 33.99 85.38 33.9 85.44 33.8 85.5 C 32.46 86.45 32.69 87.89 33.13 89.08 C 33.95 91.32 33.35 92.84 31.49 94.21 C 31.37 94.29 31.25 94.37 31.12 94.43 C 31.08 94.45 31.03 94.47 30.98 94.49 C 30.91 94.52 30.83 94.56 30.75 94.58 C 30.7 94.6 30.64 94.61 30.59 94.62 C 30.52 94.64 30.44 94.66 30.37 94.67 C 30.31 94.68 30.26 94.68 30.2 94.68 C 30.13 94.69 30.06 94.7 29.99 94.7 C 29.96 94.7 29.93 94.69 29.9 94.69 C 29.81 94.69 29.72 94.68 29.63 94.67 C 29.59 94.66 29.56 94.65 29.52 94.65 C 29.43 94.63 29.34 94.61 29.26 94.59 C 29.23 94.58 29.2 94.57 29.16 94.56 C 29.05 94.53 28.94 94.48 28.82 94.44 C 28.8 94.43 28.78 94.41 28.75 94.4 C 28.66 94.36 28.57 94.32 28.48 94.27 C 28.45 94.25 28.41 94.23 28.38 94.21 C 28.3 94.16 28.22 94.11 28.14 94.06 C 28.11 94.04 28.08 94.02 28.04 93.99 C 27.94 93.92 27.84 93.84 27.73 93.76 C 27.72 93.74 27.7 93.73 27.68 93.71 C 27.6 93.64 27.52 93.56 27.44 93.49 C 27.4 93.46 27.37 93.42 27.34 93.39 C 27.27 93.32 27.21 93.25 27.14 93.18 C 27.11 93.15 27.09 93.12 27.06 93.09 C 26.97 92.99 26.88 92.88 26.8 92.77 C 26.79 92.76 26.79 92.75 26.78 92.74 C 26.7 92.64 26.63 92.54 26.57 92.43 C 26.54 92.4 26.52 92.36 26.5 92.33 C 26.45 92.24 26.4 92.16 26.35 92.07 C 26.33 92.03 26.31 92 26.29 91.96 C 26.23 91.84 26.17 91.72 26.11 91.6 C 26.1 91.58 26.09 91.56 26.08 91.53 C 26.08 91.52 26.07 91.52 26.07 91.51 C 26.06 91.48 26.04 91.45 26.03 91.42 C 26.02 91.41 26.02 91.41 26.02 91.4 C 26 91.36 25.98 91.32 25.95 91.27 C 25.95 91.26 25.94 91.25 25.94 91.24 C 25.92 91.21 25.9 91.17 25.87 91.13 C 25.87 91.12 25.86 91.1 25.85 91.09 C 25.82 91.04 25.8 90.99 25.77 90.95 C 25.76 90.94 25.76 90.93 25.76 90.93 C 25.73 90.88 25.7 90.83 25.67 90.78 C 25.66 90.77 25.65 90.75 25.64 90.74 C 25.61 90.7 25.58 90.66 25.56 90.63 C 25.55 90.61 25.54 90.6 25.53 90.59 C 25.5 90.55 25.46 90.5 25.43 90.46 C 25.42 90.45 25.41 90.44 25.4 90.43 C 25.37 90.4 25.34 90.37 25.31 90.35 C 25.3 90.34 25.29 90.33 25.28 90.32 C 25.21 90.26 25.14 90.21 25.07 90.2 C 25.06 90.2 25.05 90.19 25.04 90.19 C 25.03 90.19 25.02 90.19 25 90.19 C 24.95 90.19 24.89 90.21 24.84 90.25 C 24.84 90.26 24.83 90.26 24.83 90.27 C 24.8 90.29 24.77 90.33 24.74 90.38 C 24.74 90.39 24.74 90.4 24.73 90.41 C 24.7 90.46 24.68 90.52 24.66 90.59 C 24.65 90.6 24.65 90.61 24.65 90.62 C 24.62 90.7 24.6 90.79 24.58 90.89 C 24.47 91.87 25.07 93.29 25 93.83 C 25.02 93.69 20.07 92.35 19.6 92.21 C 19.57 92.2 19.52 92.18 19.47 92.16 C 19.45 92.15 19.43 92.15 19.41 92.14 C 19.37 92.13 19.33 92.11 19.29 92.09 C 19.26 92.08 19.23 92.07 19.2 92.06 C 19.17 92.05 19.14 92.04 19.11 92.03 C 18.99 91.98 18.85 91.93 18.7 91.87 C 18.7 91.87 18.69 91.87 18.68 91.86 C 18.59 91.83 18.49 91.8 18.4 91.76 C 18.38 91.75 18.35 91.74 18.33 91.74 C 18.24 91.7 18.14 91.67 18.04 91.63 C 18.02 91.63 18.01 91.62 17.99 91.62 C 17.87 91.58 17.75 91.54 17.63 91.5 C 17.62 91.49 17.61 91.49 17.6 91.49 C 17.5 91.45 17.39 91.42 17.29 91.39 C 17.26 91.38 17.23 91.37 17.2 91.36 C 17.11 91.34 17.02 91.31 16.93 91.29 C 16.9 91.28 16.88 91.27 16.85 91.27 C 16.62 91.21 16.41 91.16 16.21 91.13 C 16.18 91.13 16.16 91.13 16.13 91.13 C 16.06 91.12 15.99 91.11 15.92 91.11 C 15.89 91.1 15.87 91.1 15.84 91.1 C 15.83 91.1 15.81 91.1 15.79 91.1 C 15.75 91.1 15.72 91.1 15.69 91.11 C 15.65 91.11 15.62 91.11 15.59 91.12 C 15.54 91.12 15.5 91.13 15.46 91.15 C 15.44 91.15 15.41 91.16 15.38 91.17 C 15.35 91.18 15.32 91.21 15.29 91.23 C 15.27 91.24 15.25 91.25 15.24 91.27 C 15.2 91.31 15.18 91.36 15.16 91.42 C 15.06 91.89 16.12 92.33 16.4 92.52 C 17.58 93.35 18.69 94.29 19.83 95.16 C 19.77 95.25 19.72 95.34 19.67 95.42 C 18.88 94.97 16.58 93.13 15.79 92.68 C 15.71 92.64 15.64 92.61 15.58 92.59 C 15.56 92.58 15.54 92.58 15.52 92.58 C 15.49 92.57 15.46 92.56 15.43 92.56 C 15.43 92.56 15.42 92.57 15.42 92.57 C 15.41 92.57 15.4 92.57 15.38 92.57 C 15.35 92.58 15.33 92.58 15.3 92.6 C 15.29 92.6 15.28 92.61 15.28 92.61 C 15.25 92.63 15.24 92.64 15.22 92.66 C 15.22 92.67 15.21 92.67 15.2 92.68 C 15.19 92.7 15.17 92.73 15.16 92.76 C 15.16 92.77 15.15 92.77 15.15 92.78 C 15.14 92.8 15.14 92.82 15.13 92.84 C 15.13 92.85 15.13 92.86 15.13 92.87 C 15.13 92.88 15.12 92.89 15.12 92.9 C 15.12 92.91 15.12 92.92 15.12 92.92 C 15.12 92.93 15.12 92.94 15.12 92.94 C 14.92 93.89 15.66 94.67 16.21 95.34 C 16.75 96.01 17.23 96.87 17.96 97.36 C 17.05 96.75 16.13 96.15 15.23 95.53 C 15.2 95.51 15.16 95.48 15.13 95.46 C 15.1 95.43 15.06 95.41 15.03 95.39 C 15.02 95.38 15 95.37 14.99 95.36 C 14.96 95.34 14.94 95.32 14.91 95.31 C 14.9 95.3 14.88 95.29 14.87 95.28 C 14.84 95.26 14.81 95.24 14.78 95.22 C 14.77 95.22 14.76 95.21 14.75 95.2 C 14.67 95.15 14.59 95.11 14.51 95.08 C 14.5 95.08 14.49 95.07 14.48 95.07 C 14.45 95.06 14.43 95.05 14.4 95.04 C 14.39 95.04 14.38 95.03 14.37 95.03 C 14.34 95.03 14.32 95.02 14.3 95.02 C 14.29 95.02 14.28 95.02 14.28 95.02 C 14.23 95.02 14.19 95.03 14.16 95.05 C 14.16 95.05 14.15 95.06 14.15 95.06 C 14.12 95.08 14.1 95.1 14.07 95.14 C 14.07 95.14 14.07 95.15 14.06 95.16 C 14.04 95.2 14.03 95.25 14.02 95.31 C 14.02 95.32 14.02 95.34 14.02 95.35 C 14.01 95.42 14.01 95.5 14.02 95.6 C 14.13 96.94 15.68 98.28 16.71 98.95 C 17.95 99.75 19.34 100.2 20.78 100.44 C 22.92 100.81 25.22 100.52 26.87 102.53 C 27.42 103.2 28.49 103.48 29.36 103.84 C 32.64 105.18 35.94 106.48 39.24 107.76 C 39.35 107.81 39.47 107.85 39.59 107.88 C 39.63 107.89 39.66 107.9 39.7 107.91 C 39.79 107.93 39.87 107.95 39.96 107.96 C 40.01 107.97 40.05 107.98 40.1 107.98 C 40.18 107.99 40.26 108 40.33 108.01 C 40.39 108.02 40.44 108.02 40.49 108.02 C 40.55 108.02 40.6 108.03 40.66 108.03 C 40.69 108.03 40.72 108.03 40.74 108.03 C 46.58 107.91 52.43 107.81 58.27 107.59 C 58.9 107.57 59.53 107.51 60.16 107.44 C 61.51 107.3 62.85 107.07 64.17 106.8 C 64.67 106.7 65.17 106.57 65.68 106.43 C 66.96 106.07 68.23 105.65 69.5 105.38 C 70.14 105.25 70.79 105.15 71.43 105.13 C 74 105.04 75.49 103.57 77.16 102.13 C 77.52 101.82 77.85 101.48 78.19 101.15 C 78.27 101.08 78.34 101.01 78.41 100.95 C 78.44 100.92 78.46 100.9 78.49 100.87 C 78.57 100.8 78.64 100.73 78.72 100.66 C 78.73 100.65 78.75 100.65 78.76 100.63 C 78.83 100.58 78.89 100.52 78.96 100.46 C 78.99 100.45 79.01 100.43 79.04 100.41 C 79.12 100.35 79.2 100.29 79.28 100.24 C 79.29 100.23 79.31 100.22 79.32 100.21 C 79.39 100.16 79.47 100.12 79.54 100.08 C 79.57 100.07 79.59 100.06 79.61 100.05 C 79.7 100 79.79 99.96 79.88 99.93 C 79.9 99.93 79.91 99.92 79.93 99.92 C 80.01 99.89 80.09 99.87 80.18 99.85 C 80.2 99.85 80.22 99.84 80.25 99.84 C 80.35 99.82 80.45 99.82 80.55 99.81 C 80.59 99.81 80.64 99.82 80.68 99.82 C 80.71 99.82 80.75 99.82 80.78 99.82 C 80.82 99.83 80.87 99.84 80.92 99.85 C 80.96 99.85 80.99 99.85 81.02 99.86 C 81.07 99.87 81.13 99.89 81.18 99.9 C 81.21 99.91 81.24 99.92 81.28 99.93 C 81.36 99.96 81.45 99.99 81.54 100.03 C 81.64 100.07 81.75 100.1 81.86 100.11 C 81.89 100.12 81.93 100.12 81.97 100.12 C 82.04 100.13 82.1 100.14 82.17 100.14 C 82.18 100.14 82.19 100.13 82.2 100.13 C 82.29 100.13 82.37 100.12 82.46 100.12 C 82.5 100.11 82.54 100.11 82.59 100.11 C 82.71 100.09 82.84 100.06 82.95 100.04 C 87.12 99.08 90.93 97.33 94.08 94.41 C 95.75 92.85 97.11 90.95 98.58 89.26 C 100.73 90.58 101.78 92.52 101.35 95.17 C 101.24 95.87 101.23 96.62 101.37 97.31 C 101.67 98.77 101.74 100.48 102.57 101.57 C 103.94 103.37 107.56 119.58 107.32 121.75 C 107.31 121.79 107.36 121.85 107.42 121.93 C 108.12 121.96 108.83 121.97 109.54 121.97 C 119.44 121.97 128.74 119.42 136.84 114.95 C 137.43 111.89 138.55 106.77 139.86 103.38 C 141.1 100.15 142.43 95.43 143.6 92.3 C 145.1 88.33 146.05 83.57 147.53 79.6 C 148.82 76.17 148.45 73.6 149.82 70.2 C 149.85 70.15 149.86 70.11 149.86 70.06 C 150.46 66.16 150.9 62.24 150 58.33 C 149.28 55.22 150.72 52.75 152.89 51.1 C 154.8 49.64 156.37 48.02 157.89 46.19 C 159.08 44.75 160.17 43.26 161.13 41.71 C 161.89 40.46 162.57 39.18 163.13 37.83 C 163.68 36.53 164.12 35.18 164.44 33.75 C 164.62 32.97 164.82 32.19 165.03 31.42 C 165.41 30.02 165.82 28.63 166.2 27.24 C 166.19 25.33 166.18 23.43 166.17 21.52" />
    <path fill="#343433" fill-rule="evenodd" d="M 136.84 114.95 C 136.84 114.96 136.84 114.96 136.84 114.97" />
    <path fill="#343433" fill-rule="evenodd" d="M 107.42 121.93 C 107.42 121.93 107.42 121.93 107.42 121.93" />
    <path fill="#d73b2a" fill-rule="evenodd" d="M 153.76 52.25 C 152.33 53.34 150.75 55.22 151.4 58.01 C 152.37 62.25 151.86 66.53 151.29 70.21 C 151.27 70.47 151.19 70.67 151.14 70.78 C 150.51 72.36 150.28 73.76 150.04 75.24 C 149.8 76.75 149.55 78.3 148.87 80.11 C 148.16 82.02 147.55 84.2 146.96 86.3 C 146.35 88.49 145.72 90.75 144.95 92.8 C 144.41 94.25 143.84 96.03 143.23 97.91 C 142.56 100 141.87 102.15 141.2 103.9 C 140.11 106.73 139.12 110.96 138.49 114.01 C 155.08 104.11 166.2 85.96 166.2 65.21 C 166.2 57.44 164.64 50.04 161.82 43.29 C 161 44.55 160.06 45.81 158.99 47.11 C 157.25 49.21 155.59 50.85 153.76 52.25" />
    <path fill="#d73b2a" fill-rule="evenodd" d="M 105.89 121.59 C 106.07 119.8 102.61 104.14 101.43 102.44 C 100.58 101.33 100.35 99.9 100.15 98.63 C 100.09 98.27 100.03 97.93 99.97 97.6 C 99.75 96.58 99.83 95.59 99.93 94.94 C 100.18 93.39 99.82 92.19 98.8 91.22 C 98.65 91.41 98.5 91.59 98.34 91.78 C 97.33 93.03 96.28 94.32 95.05 95.46 C 91.96 98.34 88 100.35 83.29 101.43 C 83.03 101.5 82.62 101.57 82.17 101.57 C 81.73 101.57 81.33 101.5 80.99 101.35 C 80.83 101.29 80.68 101.25 80.57 101.25 C 80.2 101.25 79.78 101.63 79.19 102.19 C 79.09 102.28 79 102.37 78.9 102.47 C 78.65 102.72 78.39 102.97 78.1 103.23 C 77.96 103.35 77.82 103.46 77.69 103.58 C 76.12 104.93 74.35 106.46 71.48 106.56 C 71.25 106.57 71.02 106.59 70.79 106.62 C 80.1 115.37 92.36 121 105.92 121.86 C 105.84 121.84 105.88 121.68 105.89 121.59" />
    <path fill="#d73b2a" fill-rule="evenodd" d="M 69.25 90.08 C 69.26 90.05 69.3 89.94 69.31 89.7 C 69.46 84.86 72.08 81.29 74.33 78.73 C 77.06 75.63 79.84 73.85 83.09 73.15 C 83.2 73.05 83.36 72.84 83.41 72.71 C 83.55 67.9 85.78 63.66 90.04 60.13 C 91.75 58.71 93.73 57.77 95.84 57.37 C 94.66 55.82 93.4 53.83 92.87 51.37 C 91.95 51.22 91.2 50.98 90.7 50.32 C 90.01 49.41 90.19 48.27 90.41 46.8 L 90.44 46.65 C 90.57 45.91 90.68 45.2 90.72 44.52 C 90.69 44.43 90.6 44.27 90.54 44.15 L 90.5 44.08 C 90.36 43.82 90.21 43.57 90.05 43.3 C 89.82 42.93 89.59 42.55 89.38 42.12 C 89.22 41.78 89.13 41.45 89.06 41.18 C 89.04 41.07 89 40.92 88.97 40.84 C 87.36 39.11 87.46 37.1 87.54 35.47 C 87.55 35.32 87.55 35.17 87.56 35.03 C 87.57 34.67 87.58 34.31 87.59 33.95 C 87.61 32.84 87.63 31.69 87.85 30.55 C 88.01 29.72 88.39 29 88.73 28.36 C 88.9 28.04 89.06 27.74 89.18 27.46 C 91 23.07 95.64 22.05 99.37 21.22 C 100 21.08 100.6 20.95 101.17 20.81 C 101.35 20.76 101.54 20.72 101.72 20.67 C 102.67 20.43 103.65 20.18 104.67 20.06 C 105.02 20.03 105.37 20.01 105.76 20.01 C 106.3 20.01 106.83 20.04 107.33 20.08 C 107.37 20.08 107.4 20.08 107.43 20.08 C 107.18 19.77 107.18 19.28 107.29 18.86 C 107.4 18.44 107.61 18.05 107.87 17.69 C 108.12 17.35 108.44 17.03 108.85 16.71 C 111.53 14.63 113.98 13.39 116.58 12.8 C 117.16 12.67 117.84 12.3 118.66 11.69 L 119.35 11.17 C 120 10.67 120.66 10.17 121.33 9.68 C 117.53 8.88 113.58 8.45 109.54 8.45 C 78.24 8.45 52.88 33.86 52.88 65.21 C 52.88 75.04 55.37 84.29 59.76 92.35 C 62.56 91.22 65.48 90.25 68.72 90.17 C 69.06 90.16 69.21 90.1 69.25 90.08" />
    <path fill="#d73b2a" fill-rule="evenodd" d="M 113.26 21.89 C 114.26 23.07 114.91 24.38 115.54 25.65 L 115.67 25.91 C 116.7 27.96 117.25 30.04 117.3 32.07 C 117.36 34.08 118.02 35.76 119.46 37.51 C 120.8 39.17 122.41 41.08 124.21 42.67 C 124.44 42.87 124.6 43 124.71 43.09 C 124.91 42.91 125.17 42.65 125.38 42.43 L 125.88 41.93 C 126.96 40.83 128.08 39.7 129.31 38.69 C 129.61 38.45 129.88 38.23 130.12 38.03 C 132.64 35.93 133.37 35.42 137.34 34.63 C 137.48 34.17 137.65 33.55 137.73 33.22 C 137.88 32.69 137.95 32.45 138 32.29 C 138.47 31.05 138.96 30.08 139.54 29.24 C 140.86 27.34 142.86 26.04 145.34 25.48 C 145.56 25.43 145.79 25.39 146.01 25.36 C 145.39 24.88 144.75 24.41 144.1 23.96 C 140.96 21.77 137.73 19.59 134.61 17.48 C 133.72 16.88 132.83 16.28 131.94 15.68 C 131.88 15.78 131.81 15.89 131.76 15.98 C 131.58 16.28 131.37 16.62 131.1 16.94 C 130.67 17.46 130.56 17.69 130.5 18.2 C 130.38 19.34 129.82 20.14 129.23 20.82 C 128.66 21.5 128.24 22.28 127.89 23.35 C 127.78 23.71 127.72 24.14 127.66 24.59 C 127.59 25.13 127.51 25.69 127.34 26.25 C 127.1 27.09 126.18 28.32 124.98 28.33 L 124.96 28.33 C 124.09 28.33 123.34 28.01 122.78 27.42 C 122.3 26.91 122.02 26.27 121.87 25.61 C 121.34 26.03 120.58 26.25 119.66 26.25 C 119.34 26.25 119.02 26.22 118.74 26.17 C 117.44 25.93 116.45 25.09 115.85 24.42 C 114.73 23.17 114.3 21.51 114.61 19.83 C 114.07 19.89 113.56 19.97 113.38 20.01 C 113.18 20.06 112.97 20.12 112.76 20.16 C 112.55 20.19 112.34 20.21 112.13 20.26 C 112.06 20.27 111.99 20.27 111.92 20.28 C 111.84 20.31 111.76 20.35 111.67 20.37 C 111.6 20.39 111.49 20.39 111.43 20.44 C 111.41 20.45 111.34 20.5 111.22 20.53 C 111.49 20.6 111.76 20.69 112 20.83 C 112.48 21.11 112.89 21.46 113.26 21.89" />
    <path fill="#ffffff" fill-rule="evenodd" d="M 105.92 121.86 L 105.92 121.86" />
    <path fill="#ffffff" fill-rule="evenodd" d="M 107.33 20.08 C 107.37 20.21 107.56 20.17 107.33 20.08" />
</svg>